<?xml version="1.0" encoding="iso-8859-1"?>
<!-- Generator: Adobe Illustrator 19.0.0, SVG Export Plug-In . SVG Version: 6.00 Build 0)  -->
<svg version="1.1" id="Layer_1" xmlns="http://www.w3.org/2000/svg" xmlns:xlink="http://www.w3.org/1999/xlink" x="0px" y="0px" fill="#1d1d1d"
	 viewBox="0 0 512 512" style="enable-background:new 0 0 512 512;" xml:space="preserve">
	<g>
		<path d="M 488 237 l -82 -47 c 0 -9.6667 0 -19.3333 0 -24 c -7 0 -7 0 -11 0 c 0 6.4653 0 12.9307 0 17 c -22.708 -13 -45.416 -26 -136 -76 c -2 -1 -4 -1 -6 0 L 29 235 c 2 2 2 2 4 4 l 10 -6 V 405 c 0 3 0 3 3 3 h 420 c 3 0 3 0 3 -3 V 232 c 4.169 2.3767 8.338 4.7533 15 9 z z z M 463.842 403.011 h -0.001 H 311.324 L 311 403 H 48.157 V 229.009 C 117.438 189.5157 186.719 150.0223 256 110.529 c 69.281 39.4933 138.562 78.9867 207.843 118.48 V 403.011 z"/>
	</g>
</svg>
